<svg id="_10" data-name=" 10" xmlns="http://www.w3.org/2000/svg" viewBox="0 0 512 512"><defs><style>.cls-1{fill:#fff;}.cls-2{fill:#5b88a3;}</style></defs><title>Emailcircle</title><ellipse class="cls-1" cx="256" cy="267.53" rx="209" ry="196"/><path class="cls-2" d="M115,356.67v.21H397v-6l-94.17-83.39-34.05,30.33a20.47,20.47,0,0,1-27.74,0l-31.86-28.23-94.18,84v3.07Z"/><polygon class="cls-2" points="396.86 190.88 396.86 190.6 329.25 245.41 314.06 257.66 314.1 257.69 313.93 257.84 396.86 324.6 396.86 241.8 397 190.77 396.86 190.88"/><polygon class="cls-2" points="115.14 190.88 115.14 190.6 185.13 245.41 200.86 257.66 200.82 257.69 201 257.84 115.14 324.6 115.14 241.8 115 190.77 115.14 190.88"/><path class="cls-2" d="M254.85,274.78a15.14,15.14,0,0,0,9.44-3.32L397,165v-3H115v5.45l130.44,104A15.14,15.14,0,0,0,254.85,274.78Z"/><path class="cls-2" d="M256,0C114.62,0,0,114.61,0,256S114.62,512,256,512,512,397.39,512,256,397.39,0,256,0ZM98.93,358.08V160.42c0-10.38,8.68-18.82,19.35-18.82H393.73c10.66,0,19.35,8.44,19.35,18.82V358.08c0,10.38-8.69,18.83-19.35,18.83H118.28C107.61,376.91,98.93,368.46,98.93,358.08Z"/></svg>