<svg id="Layer_1" data-name="Layer 1" xmlns="http://www.w3.org/2000/svg" xmlns:xlink="http://www.w3.org/1999/xlink" viewBox="0 0 1901.46 1582.84"><defs><style>.cls-1{fill:#fff;}.cls-2{opacity:0.63;isolation:isolate;fill:url(#radial-gradient);}.cls-3{fill:url(#linear-gradient);}</style><radialGradient id="radial-gradient" cx="778.65" cy="944.9" r="0.51" gradientTransform="matrix(1943.17, 111.4, 159.77, -1723.05, -1663832.83, 1541428.35)" gradientUnits="userSpaceOnUse"><stop offset="0" stop-color="#fffcfc"/><stop offset="1" stop-color="#ffb5b7"/></radialGradient><linearGradient id="linear-gradient" x1="1126.61" y1="1008.13" x2="104.12" y2="1890.99" gradientUnits="userSpaceOnUse"><stop offset="0" stop-color="#ffb3b4"/><stop offset="1" stop-color="#ffc9c9"/></linearGradient></defs><title>hero-wave</title><polygon class="cls-1" points="1901.34 0.51 940.59 0.51 1901.34 2.65 1901.34 0.51"/><polygon class="cls-1" points="1901.34 282.29 1900.75 1582.84 1901.34 1582.84 1901.34 282.29"/><path class="cls-2" d="M757.84-.51c0,.17,0,.34,0,.51H988Z" transform="translate(-47.44 0.51)"/><polygon class="cls-2" points="1901.46 2.65 1901.34 2.65 1901.34 282.29 1901.46 2.65"/><path class="cls-1" d="M1948.77,2.14,988,0H757.89c14.63,154,6.6,309.93-19.75,461-4.64,26.59-9.94,53.52-15.76,80.05-5.88,26.77-12.44,53.85-19.51,80.51-7.13,26.9-14.94,54-23.2,80.44-8.19,26.24-17,52.59-26.33,78.34-9.19,25.52-19.05,51.12-29.3,76.1-10.16,24.78-21,49.6-32.15,73.77-11.08,24-22.81,48-34.85,71.31s-24.55,46.3-37.41,68.73-26.19,44.52-39.83,66-27.74,42.66-42.12,63.22-29.21,40.75-44.27,60.29-30.57,38.74-46.26,57.25-31.85,36.66-48.13,54.09-33,34.49-49.86,50.81-34.13,32.25-51.44,47.41-35.1,29.91-52.89,43.89-36,27.53-54.2,40.26c-14.22,10-28.7,19.64-43.19,28.87H1948.18l.59-1300.56Z" transform="translate(-47.44 0.51)"/><path class="cls-2" d="M1948.77,2.14,988,0H757.89c14.63,154,6.6,309.93-19.75,461-4.64,26.59-9.94,53.52-15.76,80.05-5.88,26.77-12.44,53.85-19.51,80.51-7.13,26.9-14.94,54-23.2,80.44-8.19,26.24-17,52.59-26.33,78.34-9.19,25.52-19.05,51.12-29.3,76.1-10.16,24.78-21,49.6-32.15,73.77-11.08,24-22.81,48-34.85,71.31s-24.55,46.3-37.41,68.73-26.19,44.52-39.83,66-27.74,42.66-42.12,63.22-29.21,40.75-44.27,60.29-30.57,38.74-46.26,57.25-31.85,36.66-48.13,54.09-33,34.49-49.86,50.81-34.13,32.25-51.44,47.41-35.1,29.91-52.89,43.89-36,27.53-54.2,40.26c-14.22,10-28.7,19.64-43.19,28.87H1948.18l.59-1300.56Z" transform="translate(-47.44 0.51)"/><path class="cls-3" d="M1903.15,0c-31.68.17-78,.14-134.58,0H807c13.44,157.58,2.87,316.78-26.94,470.71-5.27,27.2-11.25,54.75-17.78,81.89-6.59,27.38-13.91,55.08-21.76,82.31s-16.34,54.38-25.31,81c-8.9,26.41-18.49,52.93-28.5,78.83-9.93,25.66-20.55,51.41-31.55,76.51-10.91,24.9-22.5,49.82-34.43,74.08-11.85,24.09-24.36,48.16-37.19,71.54s-26.12,46.4-39.79,68.87-27.79,44.57-42.24,66.08S472.16,1194.52,457,1215s-30.83,40.67-46.71,60.17-32.21,38.61-48.72,57-33.5,36.47-50.6,53.79-34.67,34.24-52.31,50.41-35.76,32-53.88,46.93-36.73,29.55-55.31,43.33-37.63,27.1-56.59,39.6c-8.26,5.45-16.61,10.8-25,16h1880.9V0Z" transform="translate(-47.44 0.51)"/></svg>