<svg xmlns="http://www.w3.org/2000/svg" xmlns:xlink="http://www.w3.org/1999/xlink" width="1808.393" height="1664.765" viewBox="0 0 1808.393 1664.765">
  <defs>
    <style>
      .cls-1 {
        fill: url(#radial-gradient);
      }
    </style>
    <radialGradient id="radial-gradient" cx="0.863" cy="0.706" r="0.744" gradientTransform="matrix(0.648, -0.762, 0.735, 0.626, -0.192, 0.568)" gradientUnits="objectBoundingBox">
      <stop offset="0" stop-color="#ffbaba"/>
      <stop offset="1" stop-color="#ffb5b7"/>
    </radialGradient>
  </defs>
  <path id="Subtraction_2" data-name="Subtraction 2" class="cls-1" d="M2492.1,3063.62c-114.726,0-226.316-.337-331.671-1-109.241-.689-206.586-1.7-289.33-3.007-184.665-2.915-282.273-7.074-282.273-12.028l.5-1.238c18.774-10.907,37.669-22.7,56.161-35.036,18.46-12.32,37-25.512,55.106-39.21s36.229-28.243,53.9-43.254,35.35-30.884,52.541-47.169c17.207-16.3,34.376-33.444,51.032-50.954,16.688-17.544,33.3-35.917,49.371-54.609,16.118-18.745,32.12-38.3,47.56-58.135,15.495-19.9,30.836-40.6,45.6-61.531,14.825-21.019,29.455-42.82,43.484-64.8,14.1-22.092,27.97-44.948,41.219-67.934,13.329-23.124,26.384-46.992,38.8-70.941,12.5-24.111,24.695-48.947,36.236-73.818,11.627-25.057,22.9-50.817,33.518-76.566,10.7-25.964,21.014-52.606,30.649-79.184,9.721-26.815,19.016-54.293,27.628-81.672,8.69-27.628,16.919-55.9,24.457-84.031,7.463-27.852,14.411-56.173,20.651-84.174,6.183-27.746,11.836-55.916,16.8-83.728,4.922-27.573,9.3-55.531,13.016-83.1,3.683-27.343,6.81-55.029,9.294-82.289,2.465-27.057,4.361-54.408,5.636-81.295,1.266-26.708,1.954-53.663,2.042-80.119.089-26.3-.412-52.8-1.487-78.76-1.069-25.825-2.735-51.8-4.952-77.219,81.96-1.37,208.573-3.348,346.323-4.991,165.4-1.973,305.26-2.974,415.7-2.974,197.475,0,297.6,3.2,297.6,9.5l-1.846,1639.224c0,4.954-97.608,9.114-282.273,12.028-82.744,1.306-180.089,2.317-289.33,3.007C2718.421,3063.283,2606.83,3063.62,2492.1,3063.62Z" transform="translate(-1588.831 -1398.855)"/>
</svg>
