<svg xmlns="http://www.w3.org/2000/svg" xmlns:xlink="http://www.w3.org/1999/xlink" width="1921.845" height="1633.198" viewBox="0 0 1921.845 1633.198">
  <defs>
    <style>
      .cls-1 {
        opacity: 0.631;
        fill: url(#radial-gradient);
      }

      .cls-2 {
        fill: url(#linear-gradient);
      }
    </style>
    <radialGradient id="radial-gradient" cx="0.083" cy="0.024" r="0.507" gradientTransform="matrix(0.996, 0.09, -0.097, 1.072, 0.013, -0.003)" gradientUnits="objectBoundingBox">
      <stop offset="0" stop-color="#fffcfc"/>
      <stop offset="1" stop-color="#ffe5e6"/>
    </radialGradient>
    <linearGradient id="linear-gradient" x1="0.528" y1="0.291" x2="0.106" y2="0.05" gradientUnits="objectBoundingBox">
      <stop offset="0" stop-color="#ffb1b3"/>
      <stop offset="1" stop-color="snow"/>
    </linearGradient>
  </defs>
  <g id="Group_47" data-name="Group 47" transform="translate(-0.047 20.288)">
    <path id="Subtraction_3" data-name="Subtraction 3" class="cls-1" d="M0,1599.54H0c.021-.055,2.975-7.73,8.327-21.606,18.452-11.155,37.014-23.124,55.168-35.574,18.129-12.433,36.324-25.669,54.081-39.342s35.532-28.132,52.856-42.995,34.651-30.522,51.49-46.532c16.86-16.031,33.678-32.839,49.985-49.956,16.346-17.158,32.611-35.079,48.341-53.264,15.779-18.241,31.443-37.237,46.557-56.458,15.168-19.289,30.185-39.32,44.634-59.536,14.514-20.306,28.837-41.335,42.571-62.5,13.807-21.278,27.39-43.265,40.37-65.35,13.062-22.225,25.856-45.132,38.028-68.084,12.261-23.12,24.22-46.908,35.547-70.7,11.413-23.977,22.491-48.608,32.927-73.209,10.518-24.794,20.668-50.229,30.167-75.6,9.579-25.581,18.753-51.782,27.268-77.875,8.591-26.326,16.743-53.254,24.23-80.035,7.4-26.472,14.312-53.385,20.546-79.991,6.178-26.368,11.855-53.145,16.874-79.588,4.975-26.211,9.436-52.8,13.26-79.025,3.793-26.015,7.058-52.359,9.7-78.3,2.628-25.755,4.717-51.8,6.209-77.416,1.482-25.448,2.415-51.143,2.771-76.371.355-25.082.151-50.371-.607-75.165-.754-24.662-2.075-49.491-3.927-73.8l822.164,25.619-54.088,1533.244Z" transform="matrix(1, -0.017, 0.017, 1, 0.026, 5.841)"/>
    <path id="Subtraction_2" data-name="Subtraction 2" class="cls-2" d="M0,1615.49H0l4.6-11.183c19.027-11.211,38.163-23.245,56.877-35.769,18.689-12.508,37.45-25.833,55.761-39.606s36.64-28.344,54.5-43.326,35.732-30.777,53.1-46.929c17.384-16.171,34.727-33.133,51.546-50.415,16.854-17.318,33.626-35.413,49.851-53.783,16.273-18.425,32.427-37.615,48.011-57.035,15.646-19.5,31.131-39.741,46.027-60.169,14.966-20.525,29.735-41.784,43.9-63.186,14.238-21.517,28.242-43.751,41.623-66.086,13.462-22.47,26.653-45.641,39.2-68.869,12.636-23.383,24.964-47.451,36.641-71.535,11.763-24.262,23.18-49.187,33.933-74.083,10.842-25.1,21.3-50.847,31.079-76.515,9.867-25.895,19.316-52.416,28.082-78.828,8.846-26.653,17.237-53.914,24.939-81.026,7.738-27.237,14.953-54.932,21.446-82.315,6.433-27.133,12.329-54.685,17.524-81.891,5.15-26.972,9.748-54.323,13.666-81.295,3.886-26.751,7.208-53.844,9.872-80.525,2.645-26.485,4.711-53.26,6.143-79.583,1.422-26.15,2.256-52.55,2.477-78.468.22-25.763-.158-51.73-1.124-77.181-.961-25.316-2.529-50.792-4.661-75.721C823.934.055,896.2,0,979.818,0c385.323,0,906.217,1.176,911.434,1.188l-1.022,1583.378Z" transform="translate(30.64 -2.58)"/>
  </g>
</svg>
