<svg id="Layer_1" data-name="Layer 1" xmlns="http://www.w3.org/2000/svg" viewBox="0 0 3334 3334"><defs><style>.cls-1{fill:#fff;}.cls-2{fill:#5b88a3;fill-rule:evenodd;}</style></defs><title>instagram-round</title><ellipse class="cls-1" cx="1717.81" cy="1689" rx="1314.98" ry="1284.11"/><path class="cls-2" d="M1667,0c920,0,1667,746,1667,1667,0,920-746,1667-1667,1667C747,3334,0,2588,0,1667,0,747,746,0,1667,0ZM1277,752h780c293,0,532,237,532,525v778c0,289-239,525-532,525H1277c-293,0-532-236-532-525V1277C745,988,985,752,1277,752Zm385,421c285,0,516,231,516,516s-231,516-516,516-516-231-516-516S1377,1173,1662,1173Zm0,174c188,0,341,153,341,341s-153,341-341,341c-189,0-341-153-341-341S1474,1347,1662,1347Zm499-246a84,84,0,1,1-84,84h0a83.87,83.87,0,0,1,83.72-84ZM1341,901h652c245,0,445,199,445,443v656c0,244-200,443-445,443H1341c-245,0-445-199-445-443V1344C896,1100,1096,901,1341,901Z"/></svg>