<svg id="Layer_1" data-name="Layer 1" xmlns="http://www.w3.org/2000/svg" viewBox="0 0 335.71 299.98"><defs><style>.cls-1{fill:#29abe2;opacity:0.56;}.cls-2{fill:#fff;stroke:#000;stroke-miterlimit:10;}</style></defs><title>Untitled-1</title><path class="cls-1" d="M70.78,254.14a63.49,63.49,0,0,0,14.6-3.45c18.36-6.8,30.18-21,40.77-37.69,21.49-33.78,14.94-41.08,27.7-57.69,27.47-35.78,68.31-15.57,94.61-48.46,18.82-23.53,18.44-59.55,7.69-84.62-16.63-38.79-58-51.21-80-57.69C122-51.39,37-48.14-19.23,11.46c-67.3,71.37-66.94,195.62-18.46,229.23C-4.53,263.69,66.2,254.72,70.78,254.14Z" transform="translate(72.15 43.64)"/><path class="cls-2" d="M134.62,299.15" transform="translate(72.15 43.64)"/></svg>