<svg xmlns="http://www.w3.org/2000/svg" xmlns:xlink="http://www.w3.org/1999/xlink" width="374.241" height="1096.113" viewBox="0 0 374.241 1096.113">
  <defs>
    <style>
      .cls-1 {
        fill: url(#linear-gradient);
      }
    </style>
    <linearGradient id="linear-gradient" x1="0.967" y1="1.03" x2="0.237" y2="-0.108" gradientUnits="objectBoundingBox">
      <stop offset="0" stop-color="#faa0a0"/>
      <stop offset="0.655" stop-color="#ffd1d1"/>
      <stop offset="1" stop-color="#fdeded"/>
    </linearGradient>
  </defs>
  <path id="Exclusion_2" data-name="Exclusion 2" class="cls-1" d="M3011.354,1548.113H2637.113V452c.206.09,22.582,9.875,56.9,22.285,16.591,5.181,33.233,10.024,49.466,14.393,19.809,5.332,39.17,10,57.546,13.876,45.888,9.678,86.266,14.585,120.011,14.585,9.1,0,17.844-.361,25.978-1.074a212.557,212.557,0,0,0,24.047-3.427,147.69,147.69,0,0,0,21.614-6.083,103.432,103.432,0,0,0,18.679-9.044l-.177,189.314.177,861.287Z" transform="translate(-2637.113 -452)"/>
</svg>
