<svg xmlns="http://www.w3.org/2000/svg" xmlns:xlink="http://www.w3.org/1999/xlink" width="1819.442" height="1642.954" viewBox="0 0 1819.442 1642.954">
  <defs>
    <radialGradient id="radial-gradient" cx="0.863" cy="0.706" r="0.744" gradientTransform="matrix(0.648, -0.762, 0.735, 0.626, -0.192, 0.568)" gradientUnits="objectBoundingBox">
      <stop offset="0" stop-color="#ffbaba"/>
      <stop offset="1" stop-color="#ffb5b7"/>
    </radialGradient>
  </defs>
  <g id="Group_32" data-name="Group 32" transform="translate(-19.898 2292.676)">
    <path id="Subtraction_2" data-name="Subtraction 2" d="M2484.118,3043.621c-194.626,0-385.081-1.027-536.283-2.893-166.781-2.058-282.5-5.06-334.636-8.682,18.144-11.2,36.405-23.24,54.276-35.79,17.836-12.526,35.74-25.882,53.217-39.7s34.971-28.439,52.02-43.484,34.105-30.914,50.684-47.153,33.148-33.312,49.208-50.7c16.086-17.419,32.1-35.631,47.592-54.131,15.535-18.548,30.957-37.874,45.837-57.44,14.935-19.637,29.719-40.035,43.943-60.629,14.289-20.688,28.389-42.121,41.909-63.7,13.59-21.691,26.959-44.116,39.736-66.65,12.851-22.666,25.442-46.043,37.424-69.481,12.064-23.6,23.83-47.891,34.971-72.193,11.228-24.491,22.122-49.653,32.38-74.784,10.343-25.339,20.318-51.332,29.649-77.256,9.413-26.152,18.422-52.936,26.779-79.609,8.433-26.916,16.43-54.451,23.769-81.842,7.255-27.078,14.029-54.617,20.133-81.854,6.047-26.986,11.595-54.386,16.49-81.44,4.854-26.824,9.2-54.028,12.907-80.857,3.681-26.609,6.838-53.56,9.384-80.106,2.527-26.346,4.518-52.988,5.918-79.185,1.392-26.022,2.237-52.3,2.513-78.1.274-25.639-.006-51.491-.834-76.838-.824-25.215-2.211-50.587-4.122-75.411l1046.841-5.175,1.555,1608.719c0,5.053-97.613,9.3-282.287,12.269-82.712,1.332-180.055,2.364-289.328,3.068C2710.411,3043.276,2598.829,3043.62,2484.118,3043.621Z" transform="translate(-1565.605 -3693.343)" fill="url(#radial-gradient)"/>
    <path id="Subtraction_3" data-name="Subtraction 3" d="M2425.695,3060.868c-197.593,0-389.615-1.065-540.693-3-167.186-2.143-279.3-5.257-324.23-9.006,17.834-11.242,35.78-23.329,53.337-35.929,17.531-12.581,35.129-26,52.307-39.877s34.375-28.577,51.139-43.7,33.532-31.08,49.833-47.409c16.319-16.348,32.6-33.505,48.39-50.994,15.822-17.525,31.571-35.846,46.809-54.457,15.281-18.664,30.451-38.11,45.09-57.8,14.695-19.765,29.24-40.295,43.233-61.02,14.06-20.823,27.935-42.4,41.239-64.118,13.377-21.841,26.535-44.415,39.107-67.1,12.65-22.822,25.044-46.357,36.838-69.953,11.876-23.761,23.46-48.217,34.43-72.688,11.052-24.654,21.78-49.989,31.885-75.3,10.186-25.515,20.011-51.689,29.2-77.795,9.271-26.335,18.148-53.307,26.381-80.167,8.311-27.113,16.192-54.842,23.423-82.417,6.917-26.374,13.393-53.19,19.248-79.7,5.8-26.275,11.151-52.957,15.9-79.3,4.705-26.126,8.943-52.623,12.6-78.755,3.625-25.929,6.771-52.19,9.35-78.054,2.561-25.681,4.631-51.656,6.155-77.2,1.513-25.376,2.527-51.012,3.012-76.2.483-25.03.456-50.277-.078-75.038-.531-24.63-1.58-49.436-3.116-73.729l1075.9,17.093-19.554,940.9-19.5,636.721c0,4.942-95.924,9.091-277.4,12-81.291,1.3-176.95,2.312-284.32,3C2648.073,3060.531,2538.422,3060.868,2425.695,3060.868Z" transform="matrix(1, -0.017, 0.017, 1, -1565.944, -3684.106)" opacity="0.631" fill="url(#radial-gradient)"/>
  </g>
</svg>
