<svg id="Layer_1" data-name="Layer 1" xmlns="http://www.w3.org/2000/svg" viewBox="0 0 8192 8192"><defs><style>.cls-1{fill:#fff;}.cls-2{fill:#5b88a3;fill-rule:evenodd;}</style></defs><title>pinterest-round-color</title><circle class="cls-1" cx="4071.72" cy="3798.48" r="3677.94"/><path class="cls-2" d="M4096,0C6358.19,0,8192,1833.84,8192,4096S6358.19,8192,4096,8192,0,6358.19,0,4096,1833.84,0,4096,0ZM3111.45,6365.36c251.93-224.7,424.89-544.7,509.31-872.89,34-129.37,172.94-659.1,172.94-659.1,89.88,173,355.42,318.67,634.6,318.67,836.13,0,1438-768.05,1438-1725.38,0-916.46-747.6-1601.45-1709-1601.45-1197,0-1831.58,803.44-1831.58,1677.71,0,405.82,216.52,912.41,562.4,1073.09,51.76,25.85,80.34,13.61,92.6-38.15,8.19-39.49,55.84-226,77.61-314.57,6.84-27.23,4.11-53.11-19.07-80.34-114.37-138.9-207-394.91-207-631.87,0-611.45,463-1203.81,1251.46-1203.81,680.91,0,1157.51,463,1157.51,1127.55,0,750.33-378.57,1270.53-871.54,1270.53-272.35,0-476.6-224.7-409.9-501.13,79-329.56,230.13-685,230.13-921.92,0-212.43-113-389.48-351.34-389.48-279.16,0-501.13,287.34-501.13,674.07,0,245.12,81.69,411.26,81.69,411.26s-275.08,1161.58-325.46,1378.12c-55.84,239.67-34,576-9.54,795.28l24.51,215.16,2.72-1.37h0Z"/></svg>